<svg xmlns="http://www.w3.org/2000/svg" viewBox="0 0 400 500" fill="none" opacity="0.06">
  <!-- Stylized lion head watermark -->
  <path d="M200 50 Q260 40 280 80 Q300 60 310 90 Q330 80 325 110 Q350 110 340 140 Q360 150 345 175
    Q355 195 335 210 L330 230 Q340 250 320 270 L310 300 Q320 320 300 340 L290 360 Q300 380 280 395
    L260 410 Q270 430 250 440 L230 445 Q235 460 215 465 L200 468 L185 465 Q165 460 170 445
    L150 440 Q130 430 140 410 L120 395 Q100 380 110 360 L100 340 Q80 320 90 300 L80 270
    Q60 250 70 230 L65 210 Q45 195 55 175 Q40 150 60 140 Q50 110 75 110 Q70 80 90 90
    Q100 60 120 80 Q140 40 200 50Z"
    fill="#FFFFFF"/>
  <!-- Mane details -->
  <path d="M200 90 Q230 85 245 105 Q255 95 260 115 Q275 108 270 130 Q290 130 280 155
    Q295 165 280 185 L275 200 Q285 215 270 230 L260 250 Q270 265 255 280 L245 300
    Q255 315 240 330 L225 345 Q235 360 220 370 L205 378 Q210 390 200 395
    Q190 390 195 378 L180 370 Q165 360 175 345 L160 330 Q145 315 155 300
    L145 280 Q130 265 140 250 L130 230 Q115 215 125 200 L120 185 Q105 165 120 155
    Q110 130 130 130 Q125 108 145 115 Q150 95 155 105 Q170 85 200 90Z"
    fill="#FFFFFF" opacity="0.5"/>
  <!-- Eyes -->
  <ellipse cx="170" cy="180" rx="12" ry="15" fill="#FFFFFF" opacity="0.8"/>
  <ellipse cx="230" cy="180" rx="12" ry="15" fill="#FFFFFF" opacity="0.8"/>
  <!-- Nose -->
  <path d="M190 220 Q200 230 210 220 Q205 240 200 240 Q195 240 190 220Z" fill="#FFFFFF" opacity="0.7"/>
</svg>
