<svg xmlns="http://www.w3.org/2000/svg" viewBox="0 0 200 200" fill="none">
  <circle cx="100" cy="100" r="95" stroke="#2E6BC6" stroke-width="4" fill="#0B1426"/>
  <circle cx="100" cy="100" r="85" stroke="#D4A843" stroke-width="2" fill="none"/>
  <!-- Shield shape -->
  <path d="M100 30 L155 55 L155 120 Q155 160 100 180 Q45 160 45 120 L45 55 Z" fill="#1B4B8A" stroke="#D4A843" stroke-width="2"/>
  <!-- Lion silhouette simplified -->
  <path d="M100 65 Q115 60 120 70 Q125 75 125 85 L130 82 Q135 85 132 92 L128 90 Q130 100 125 108 L115 115 L120 125 L115 130 L105 120 L100 125 L95 120 L85 130 L80 125 L85 115 L75 108 Q70 100 72 90 L68 92 Q65 85 70 82 L75 85 Q75 75 80 70 Q85 60 100 65Z" fill="#D4A843"/>
  <!-- Text SCBT -->
  <text x="100" y="155" text-anchor="middle" fill="#FFFFFF" font-family="Arial Black, sans-serif" font-size="22" font-weight="bold">SCBT</text>
  <!-- Year -->
  <text x="100" y="172" text-anchor="middle" fill="#D4A843" font-family="Arial, sans-serif" font-size="10">DEPUIS 1964</text>
</svg>
